<svg width="60" height="60" viewBox="0 0 60 60" fill="none" xmlns="http://www.w3.org/2000/svg">
<path fill-rule="evenodd" clip-rule="evenodd" d="M14.1176 56.25H49.4118V60H14.1176V56.25Z" fill="#D89514"/>
<path fill-rule="evenodd" clip-rule="evenodd" d="M47.4671 12.4198C46.6637 8.96223 44.7917 5.891 42.1509 3.6977C39.5101 1.5044 36.2531 0.315851 32.9012 0.3223C29.4465 0.314681 26.0956 1.57609 23.4159 3.89285C20.7363 6.20961 18.8928 9.43929 18.1977 13.0348C17.2397 12.7526 16.2516 12.6026 15.2577 12.5886C13.7223 12.5876 12.2019 12.9081 10.7832 13.532C9.36456 14.1558 8.07557 15.0706 6.98992 16.2241C5.90427 17.3776 5.04327 18.7471 4.45615 20.2545C3.86903 21.7618 3.56731 23.3773 3.56824 25.0086C3.56824 31.8673 7.75765 37.4286 14.2165 37.4286C14.2835 37.4286 14.3435 37.4098 14.4141 37.4098V52.3386H49.2671V39.6486C55.9129 39.1236 59.8941 33.2398 59.8941 26.0473C59.8886 22.5076 58.5899 19.1083 56.2716 16.5662C53.9534 14.024 50.7967 12.5374 47.4671 12.4198ZM31.4118 6.73105C28.44 8.77105 26.5306 11.9848 26.5306 15.6111H21.9388C21.9388 10.3686 25.9377 5.9698 31.3412 4.73605C32.3188 4.51855 32.9365 5.68105 31.4118 6.73105Z" fill="#D89514"/>
</svg>
