<svg width="255" height="107" viewBox="0 0 255 107" fill="none" xmlns="http://www.w3.org/2000/svg">
<path d="M3.744 12.352H12.768C16.384 12.352 19.136 13.344 21.024 15.328C22.944 17.312 23.904 19.952 23.904 23.248V36.4C23.904 42.8 20.512 46 13.728 46H3.744V12.352ZM21.216 22.768C21.216 20.944 20.816 19.44 20.016 18.256C19.248 17.04 18.256 16.16 17.04 15.616C15.824 15.072 14.56 14.8 13.248 14.8H6.432V43.6H12.96C15.296 43.6 17.248 43.152 18.816 42.256C20.416 41.328 21.216 39.536 21.216 36.88V22.768ZM30.5843 21.952H33.2723L33.1283 23.632C34.6323 22.224 36.6003 21.52 39.0323 21.52C39.8963 21.52 41.0803 21.664 42.5843 21.952L41.8643 24.4C40.8403 24.08 39.7683 23.92 38.6483 23.92C37.1763 23.92 35.9123 24.192 34.8563 24.736C33.8003 25.28 33.2723 26.096 33.2723 27.184V46H30.5843V21.952ZM59.1975 44.32C58.0455 45.056 56.7335 45.616 55.2615 46C53.7895 46.384 52.3175 46.576 50.8455 46.576C48.4775 46.576 46.5895 46 45.1815 44.848C43.8055 43.664 43.1175 41.904 43.1175 39.568V29.728C43.1175 27.136 43.9175 25.12 45.5175 23.68C47.1495 22.24 49.2935 21.52 51.9495 21.52C54.6055 21.52 56.6695 22.24 58.1415 23.68C59.6455 25.088 60.3975 27.056 60.3975 29.584V35.824L45.8055 36.64V39.568C45.8055 41.104 46.3015 42.256 47.2935 43.024C48.2855 43.792 49.5815 44.176 51.1815 44.176C53.4215 44.176 55.7415 43.536 58.1415 42.256L59.1975 44.32ZM57.7095 29.248C57.7095 27.264 57.0855 25.872 55.8375 25.072C54.5895 24.24 53.2775 23.824 51.9015 23.824C50.1415 23.824 48.6855 24.304 47.5335 25.264C46.3815 26.224 45.8055 27.728 45.8055 29.776V34L57.7095 33.424V29.248ZM82.506 46C79.05 46.352 76.554 46.528 75.018 46.528C71.658 46.528 68.986 45.904 67.002 44.656C65.018 43.408 64.026 41.152 64.026 37.888V33.904C64.026 30.736 65.13 28.608 67.338 27.52C68.394 26.976 69.738 26.704 71.37 26.704C72.874 26.704 74.394 26.96 75.93 27.472C77.466 27.952 78.762 28.592 79.818 29.392C79.818 27.632 79.306 26.24 78.282 25.216C77.258 24.16 75.29 23.632 72.378 23.632L72.522 21.568C75.594 21.568 77.85 22.064 79.29 23.056C80.762 24.016 81.658 25.168 81.978 26.512C82.33 27.856 82.506 29.584 82.506 31.696V46ZM79.818 31.456C78.506 30.848 77.098 30.32 75.594 29.872C74.122 29.424 72.762 29.2 71.514 29.2C68.282 29.2 66.666 30.816 66.666 34.048V38.224C66.666 40.304 67.386 41.824 68.826 42.784C70.266 43.712 72.314 44.176 74.97 44.176C76.346 44.176 77.962 44.048 79.818 43.792V31.456ZM115.29 29.536C115.29 27.616 114.778 26.208 113.754 25.312C112.762 24.416 111.466 23.968 109.866 23.968C108.618 23.968 107.226 24.24 105.69 24.784L103.914 25.648C104.458 26.736 104.73 27.984 104.73 29.392V46H102.09V29.536C102.09 27.584 101.578 26.176 100.554 25.312C99.5624 24.416 98.2504 23.968 96.6184 23.968C95.6264 23.968 94.6024 24.128 93.5464 24.448C92.4904 24.736 91.5304 25.12 90.6664 25.6V46H87.9784V21.952H90.6664L90.4264 23.488C92.5384 22.24 94.6984 21.616 96.9064 21.616C98.0584 21.616 99.1304 21.808 100.122 22.192C101.146 22.576 102.01 23.136 102.714 23.872C103.162 23.616 103.834 23.264 104.73 22.816C106.618 21.952 108.442 21.52 110.202 21.52C112.474 21.52 114.33 22.224 115.77 23.632C117.21 25.008 117.93 26.928 117.93 29.392V46H115.29V29.536ZM123.803 39.904C123.995 41.344 124.715 42.432 125.963 43.168C127.211 43.872 128.603 44.224 130.139 44.224C131.579 44.224 132.891 43.904 134.075 43.264C135.259 42.592 135.851 41.52 135.851 40.048C135.851 39.088 135.563 38.304 134.987 37.696C134.443 37.056 133.755 36.544 132.923 36.16C132.091 35.776 130.971 35.36 129.563 34.912C127.995 34.4 126.715 33.92 125.723 33.472C124.731 33.024 123.867 32.4 123.131 31.6C122.395 30.768 121.963 29.728 121.835 28.48L121.787 27.904C121.787 26.848 122.075 25.824 122.651 24.832C123.259 23.808 124.171 22.976 125.387 22.336C126.635 21.696 128.187 21.376 130.043 21.376C131.067 21.376 131.963 21.488 132.731 21.712C133.531 21.904 134.155 22.112 134.603 22.336C135.051 22.56 135.323 22.704 135.419 22.768L134.507 24.976C134.411 24.912 134.171 24.784 133.787 24.592C133.435 24.4 132.923 24.208 132.251 24.016C131.579 23.824 130.843 23.728 130.043 23.728C128.507 23.728 127.195 24.096 126.107 24.832C125.019 25.536 124.475 26.528 124.475 27.808C124.475 29.024 124.971 29.952 125.963 30.592C126.955 31.232 128.475 31.872 130.523 32.512C132.251 33.088 133.643 33.632 134.699 34.144C135.755 34.656 136.651 35.392 137.387 36.352C138.155 37.28 138.539 38.496 138.539 40C138.539 41.92 137.819 43.52 136.379 44.8C134.971 46.08 132.891 46.72 130.139 46.72C128.315 46.72 126.731 46.416 125.387 45.808C124.075 45.168 123.067 44.336 122.363 43.312C121.691 42.288 121.323 41.152 121.259 39.904H123.803Z" fill="#D89514"/>
<path d="M21.648 87.168C21.648 89.856 20.912 92.08 19.44 93.84C17.968 95.6 15.744 96.48 12.768 96.48C9.792 96.48 7.536 95.6 6 93.84C4.496 92.048 3.744 89.824 3.744 87.168V80.832C3.744 77.792 4.512 75.472 6.048 73.872C7.616 72.24 9.856 71.424 12.768 71.424C15.552 71.424 17.728 72.272 19.296 73.968C20.864 75.632 21.648 77.92 21.648 80.832V87.168ZM18.96 80.832C18.96 78.432 18.4 76.672 17.28 75.552C16.192 74.432 14.688 73.872 12.768 73.872C10.784 73.872 9.232 74.432 8.112 75.552C6.992 76.672 6.432 78.432 6.432 80.832V87.648C6.432 89.568 6.992 91.12 8.112 92.304C9.264 93.488 10.816 94.08 12.768 94.08C14.752 94.08 16.272 93.504 17.328 92.352C18.416 91.168 18.96 89.6 18.96 87.648V80.832ZM26.994 69.648C26.994 66.992 27.666 65.04 29.01 63.792C30.354 62.544 32.018 61.92 34.002 61.92C34.61 61.92 35.202 61.968 35.778 62.064L35.346 64.416C34.77 64.352 34.354 64.32 34.098 64.32C31.154 64.32 29.682 66.096 29.682 69.648V71.952H35.154L34.002 74.496H29.682V96H26.994V69.648ZM55.2308 87.456C55.3268 88.544 55.7268 89.584 56.4308 90.576C57.1668 91.568 58.1588 92.384 59.4068 93.024C60.6868 93.632 62.1428 93.936 63.7748 93.936C66.2388 93.936 68.2868 93.392 69.9188 92.304C71.5828 91.184 72.4148 89.424 72.4148 87.024C72.4148 85.616 72.0148 84.448 71.2148 83.52C70.4148 82.56 69.4228 81.808 68.2388 81.264C67.0548 80.688 65.4388 80.032 63.3907 79.296C61.1828 78.528 59.4068 77.824 58.0628 77.184C56.7508 76.512 55.6308 75.616 54.7028 74.496C53.8068 73.376 53.3588 71.936 53.3588 70.176C53.3588 68.768 53.7588 67.44 54.5588 66.192C55.3588 64.912 56.5588 63.888 58.1588 63.12C59.7908 62.32 61.7908 61.92 64.1588 61.92C65.7268 61.92 67.0228 62.032 68.0468 62.256C69.0708 62.48 70.1108 62.848 71.1668 63.36L70.3508 65.904C68.5268 64.976 66.4948 64.512 64.2548 64.512C61.7908 64.512 59.8228 65.024 58.3508 66.048C56.8788 67.072 56.1428 68.496 56.1428 70.32C56.1428 71.472 56.5108 72.448 57.2468 73.248C57.9828 74.016 58.8788 74.64 59.9348 75.12C61.0228 75.6 62.5268 76.176 64.4468 76.848C66.7828 77.648 68.6708 78.4 70.1108 79.104C71.5508 79.776 72.7668 80.752 73.7588 82.032C74.7828 83.28 75.2948 84.864 75.2948 86.784C75.2948 89.728 74.3508 92.096 72.4628 93.888C70.6068 95.648 67.7268 96.528 63.8228 96.528C61.4548 96.528 59.4228 96.096 57.7268 95.232C56.0628 94.336 54.7828 93.2 53.8867 91.824C53.0228 90.416 52.5588 88.96 52.4948 87.456H55.2308ZM94.809 93.552C94.041 94.512 93.065 95.248 91.881 95.76C90.729 96.272 89.561 96.528 88.377 96.528C82.361 96.528 79.353 93.6 79.353 87.744V71.952H82.041V88.08C82.041 90.128 82.601 91.648 83.721 92.64C84.873 93.632 86.425 94.128 88.377 94.128C90.297 94.128 91.801 93.648 92.889 92.688C94.009 91.696 94.569 90.16 94.569 88.08V71.952H97.257V96H94.617L94.809 93.552ZM103.366 89.904C103.558 91.344 104.278 92.432 105.526 93.168C106.774 93.872 108.166 94.224 109.702 94.224C111.142 94.224 112.454 93.904 113.638 93.264C114.822 92.592 115.414 91.52 115.414 90.048C115.414 89.088 115.126 88.304 114.55 87.696C114.006 87.056 113.318 86.544 112.486 86.16C111.654 85.776 110.534 85.36 109.126 84.912C107.558 84.4 106.278 83.92 105.286 83.472C104.294 83.024 103.43 82.4 102.694 81.6C101.958 80.768 101.526 79.728 101.398 78.48L101.35 77.904C101.35 76.848 101.638 75.824 102.214 74.832C102.822 73.808 103.734 72.976 104.95 72.336C106.198 71.696 107.75 71.376 109.606 71.376C110.63 71.376 111.526 71.488 112.294 71.712C113.094 71.904 113.718 72.112 114.166 72.336C114.614 72.56 114.886 72.704 114.982 72.768L114.07 74.976C113.974 74.912 113.734 74.784 113.35 74.592C112.998 74.4 112.486 74.208 111.814 74.016C111.142 73.824 110.406 73.728 109.606 73.728C108.07 73.728 106.758 74.096 105.67 74.832C104.582 75.536 104.038 76.528 104.038 77.808C104.038 79.024 104.534 79.952 105.526 80.592C106.518 81.232 108.038 81.872 110.086 82.512C111.814 83.088 113.206 83.632 114.262 84.144C115.318 84.656 116.214 85.392 116.95 86.352C117.718 87.28 118.102 88.496 118.102 90C118.102 91.92 117.382 93.52 115.942 94.8C114.534 96.08 112.454 96.72 109.702 96.72C107.878 96.72 106.294 96.416 104.95 95.808C103.638 95.168 102.63 94.336 101.926 93.312C101.254 92.288 100.886 91.152 100.822 89.904H103.366ZM137.91 79.536C137.91 77.584 137.334 76.176 136.182 75.312C135.062 74.416 133.606 73.968 131.814 73.968C130.726 73.968 129.622 74.128 128.502 74.448C127.382 74.736 126.39 75.12 125.526 75.6V96H122.838V62.4H125.526V73.248C126.326 72.704 127.286 72.288 128.406 72C129.526 71.68 130.694 71.52 131.91 71.52C133.574 71.52 135.094 71.824 136.47 72.432C137.75 73.008 138.742 73.872 139.446 75.024C140.182 76.176 140.55 77.632 140.55 79.392V96H137.91V79.536ZM148.814 65.136C148.398 65.136 148.014 64.976 147.662 64.656C147.342 64.304 147.182 63.92 147.182 63.504C147.182 63.088 147.342 62.72 147.662 62.4C147.982 62.08 148.366 61.92 148.814 61.92C149.262 61.92 149.63 62.08 149.918 62.4C150.238 62.688 150.398 63.056 150.398 63.504C150.398 63.952 150.238 64.336 149.918 64.656C149.598 64.976 149.23 65.136 148.814 65.136ZM147.422 71.952H150.11V96H147.422V71.952Z" fill="#FFA800"/>
</svg>
